<svg width="500" height="500" viewBox="0 0 800 800" xmlns="http://www.w3.org/2000/svg">
  <style>
    .country { fill: #D0D0D0; stroke: #FFFFFF; stroke-width: 1; }
  </style>
  <path class="country" d="M371,323 L371,316 L373,308 L373,301 L365,296 L359,297 L352,293 L350,287 L344,285 L339,286 L333,283 L330,277 L332,273 L338,272 L342,266 L342,261 L347,252 L347,242 L353,235 L361,232 L368,228 L374,228 L380,224 L383,219 L385,212 L390,208 L391,199 L397,191 L403,190 L409,191 L413,197 L414,204 L419,209 L424,209 L428,214 L433,217 L438,217 L442,213 L447,214 L453,218 L459,224 L464,226 L471,225 L477,227 L483,231 L487,239 L493,246 L498,252 L503,260 L507,268 L509,277 L509,285 L506,293 L501,298 L495,302 L490,305 L484,308 L478,310 L472,312 L467,314 L461,315 L456,317 L451,318 L446,319 L441,320 L436,321 L431,322 L426,323 L421,324 L416,325 L411,326 L406,327 L401,328 L396,329 L391,330 L386,331 L381,332 L376,333 L371,323Z M512,311 L516,306 L519,301 L522,296 L524,291 L525,286 L525,281 L524,276 L522,271 L519,266 L516,261 L512,256 L512,266 L512,276 L512,286 L512,296 L512,306 L512,311Z M437,326 L440,329 L443,332 L446,335 L449,338 L452,341 L455,344 L458,347 L461,350 L464,353 L467,356 L470,359 L473,362 L476,365 L479,368 L482,371 L485,374 L488,377 L491,380 L494,383 L497,386 L500,389 L503,392 L506,395 L509,398 L512,401 L515,404 L518,407 L521,410 L524,413 L527,416 L530,419 L533,422 L536,425 L539,428 L542,431 L545,434 L548,437 L551,440 L554,443 L557,446 L560,449 L563,452 L566,455 L569,458 L572,461 L575,464 L578,467 L581,470 L584,473 L587,476 L590,479 L593,482 L596,485 L599,488 L602,491 L605,494 L608,497 L611,500 L614,503 L617,506 L620,509 L623,512 L626,515 L629,518 L632,521 L635,524 L638,527 L641,530 L644,533 L647,536 L650,539 L653,542 L656,545 L659,548 L662,551 L665,554 L668,557 L671,560 L674,563 L677,566 L680,569 L683,572 L686,575 L689,578 L692,581 L695,584 L698,587 L701,590 L704,593 L707,596 L710,599 L713,602 L716,605 L719,608 L722,611 L725,614 L728,617 L731,620 L734,623 L737,626 L740,629 L743,632 L746,635 L749,638 L752,641 L755,644 L758,647 L761,650 L764,653 L767,656 L770,659 L773,662 L776,665 L779,668 L782,671 L785,674 L788,677 L791,680 L794,683 L797,686 L800,689 L795,689 L790,689 L785,689 L780,689 L775,689 L770,689 L765,689 L760,689 L755,689 L750,689 L745,689 L740,689 L735,689 L730,689 L725,689 L720,689 L715,689 L710,689 L705,689 L700,689 L695,689 L690,689 L685,689 L680,689 L675,689 L670,689 L665,689 L660,689 L655,689 L650,689 L645,689 L640,689 L635,689 L630,689 L625,689 L620,689 L615,689 L610,689 L605,689 L600,689 L595,689 L590,689 L585,689 L580,689 L575,689 L570,689 L565,689 L560,689 L555,689 L550,689 L545,689 L540,689 L535,689 L530,689 L525,689 L520,689 L515,689 L510,689 L505,689 L500,689 L495,689 L490,689 L485,689 L480,689 L475,689 L470,689 L465,689 L460,689 L455,689 L450,689 L445,689 L440,689 L435,689 L430,689 L425,689 L420,689 L415,689 L410,689 L405,689 L400,689 L395,689 L390,689 L385,689 L380,689 L375,689 L370,689 L365,689 L360,689 L355,689 L350,689 L345,689 L340,689 L335,689 L330,689 L325,689 L320,689 L315,689 L310,689 L305,689 L300,689 L295,689 L290,689 L285,689 L280,689 L275,689 L270,689 L265,689 L260,689 L255,689 L250,689 L245,689 L240,689 L235,689 L230,689 L225,689 L220,689 L215,689 L210,689 L205,689 L200,689 L195,689 L190,689 L185,689 L180,689 L175,689 L170,689 L165,689 L160,689 L155,689 L150,689 L145,689 L140,689 L135,689 L130,689 L125,689 L120,689 L115,689 L110,689 L105,689 L100,689 L95,689 L90,689 L85,689 L80,689 L75,689 L70,689 L65,689 L60,689 L55,689 L50,689 L45,689 L40,689 L35,689 L30,689 L25,689 L20,689 L15,689 L10,689 L5,689 L0,689 L5,684 L10,679 L15,674 L20,669 L25,664 L30,659 L35,654 L40,649 L45,644 L50,639 L55,634 L60,629 L65,624 L70,619 L75,614 L80,609 L85,604 L90,599 L95,594 L100,589 L105,584 L110,579 L115,574 L120,569 L125,564 L130,559 L135,554 L140,549 L145,544 L150,539 L155,534 L160,529 L165,524 L170,519 L175,514 L180,509 L185,504 L190,499 L195,494 L200,489 L205,484 L210,479 L215,474 L220,469 L225,464 L230,459 L235,454 L240,449 L245,444 L250,439 L255,434 L260,429 L265,424 L270,419 L275,414 L280,409 L285,404 L290,399 L295,394 L300,389 L305,384 L310,379 L315,374 L320,369 L325,364 L330,359 L335,354 L340,349 L345,344 L350,339 L355,334 L360,329 L365,324 L370,319 L375,314 L380,309 L385,304 L390,299 L395,294 L400,289 L405,284 L410,279 L415,274 L420,269 L425,264 L430,259 L435,254 L440,249 L445,244 L450,239 L455,234 L460,229 L465,224 L470,219 L475,214 L480,209 L485,204 L490,199 L495,194 L500,189 L505,184 L510,179 L515,174 L520,169 L525,164 L530,159 L535,154 L540,149 L545,144 L550,139 L555,134 L560,129 L565,124 L570,119 L575,114 L580,109 L585,104 L590,99 L595,94 L600,89 L605,84 L610,79 L615,74 L620,69 L625,64 L630,59 L635,54 L640,49 L645,44 L650,39 L655,34 L660,29 L665,24 L670,19 L675,14 L680,9 L685,4 L690,-1 L695,-6 L700,-11 L705,-16 L710,-21 L715,-26 L720,-31 L725,-36 L730,-41 L735,-46 L740,-51 L745,-56 L750,-61 L755,-66 L760,-71 L765,-76 L770,-81 L775,-86 L780,-91 L785,-96 L790,-101 L795,-106 L800,-111 L795,-111 L790,-111 L785,-111 L780,-111 L775,-111 L770,-111 L765,-111 L760,-111 L755,-111 L750,-111 L745,-111 L740,-111 L735,-111 L730,-111 L725,-111 L720,-111 L715,-111 L710,-111 L705,-111 L700,-111 L695,-111 L690,-111 L685,-111 L680,-111 L675,-111 L670,-111 L665,-111 L660,-111 L655,-111 L650,-111 L645,-111 L640,-111 L635,-111 L630,-111 L625,-111 L620,-111 L615,-111 L610,-111 L605,-111 L600,-111 L595,-111 L590,-111 L585,-111 L580,-111 L575,-111 L570,-111 L565,-111 L560,-111 L555,-111 L550,-111 L545,-111 L540,-111 L535,-111 L530,-111 L525,-111 L520,-111 L515,-111 L510,-111 L505,-111 L500,-111 L495,-111 L490,-111 L485,-111 L480,-111 L475,-111 L470,-111 L465,-111 L460,-111 L455,-111 L450,-111 L445,-111 L440,-111 L435,-111 L430,-111 L425,-111 L420,-111 L415,-111 L410,-111 L405,-111 L400,-111 L395,-111 L390,-111 L385,-111 L380,-111 L375,-111 L370,-111 L365,-111 L360,-111 L355,-111 L350,-111 L345,-111 L340,-111 L335,-111 L330,-111 L325,-111 L320,-111 L315,-111 L310,-111 L305,-111 L300,-111 L295,-111 L290,-111 L285,-111 L280,-111 L275,-111 L270,-111 L265,-111 L260,-111 L255,-111 L250,-111 L245,-111 L240,-111 L235,-111 L230,-111 L225,-111 L220,-111 L215,-111 L210,-111 L205,-111 L200,-111 L195,-111 L190,-111 L185,-111 L180,-111 L175,-111 L170,-111 L165,-111 L160,-111 L155,-111 L150,-111 L145,-111 L140,-111 L135,-111 L130,-111 L125,-111 L120,-111 L115,-111 L110,-111 L105,-111 L100,-111 L95,-111 L90,-111 L85,-111 L80,-111 L75,-111 L70,-111 L65,-111 L60,-111 L55,-111 L50,-111 L45,-111 L40,-111 L35,-111 L30,-111 L25,-111 L20,-111 L15,-111 L10,-111 L5,-111 L0,-111Z"/>
</svg>