<svg width="600" height="400" viewBox="0 0 600 400" xmlns="http://www.w3.org/2000/svg">
  <style>
    .land { fill: #EAEAEA; stroke: #FFFFFF; }
    .highlight { fill: #0077C8; }
    .sea { fill: #F4F9FF; }
  </style>
  <rect width="600" height="400" class="sea"/>
  <path class="land" d="M225,50 L250,50 L255,75 L280,70 L300,90 L300,120 L270,150 L230,140 L210,110 L225,50 Z"/>
  <path class="land" d="M50,250 L250,250 L220,350 L100,350 L50,250 Z"/>
  <path class="highlight" d="M120,150 L115,220 L90,225 L95,155 L120,150 Z"/>
  <path class="highlight" d="M120,150 L210,130 L230,230 L115,220 L120,150 Z"/>
  <path class="highlight" d="M420,200 L450,180 L480,210 L470,250 L440,260 L420,230 L430,220 L420,200 Z M490,240 L500,235 L510,245 L495,255 Z M485,265 L495,275 L480,285 Z"/>
  <circle class="highlight" cx="400" cy="320" r="8"/>
</svg>